<svg width="27" height="27" viewBox="0 0 27 27" fill="none" xmlns="http://www.w3.org/2000/svg">
<g clip-path="url(#clip0)">
<path d="M5.82235 12.877C4.33968 12.877 3.13721 14.0794 3.13721 15.5621C3.13721 17.0448 4.33968 18.2472 5.82235 18.2472C7.30502 18.2472 8.50749 17.0448 8.50749 15.5621C8.50749 14.0794 7.30502 12.877 5.82235 12.877Z" fill="url(#paint0_linear)"/>
<path d="M18.6411 4.98223C17.4503 4.62032 15.81 4.41602 14.1464 4.41602C12.4653 4.41602 10.8834 4.62032 9.70425 4.98223C8.58934 5.32663 8.19824 5.71772 8.19824 5.84031C8.20408 5.84614 8.20992 5.85198 8.20992 5.85782C8.2391 5.98624 8.59518 6.38901 9.85018 6.75092C11.0118 7.08948 12.5412 7.27627 14.1522 7.27627C15.8159 7.27627 17.4561 7.06613 18.6411 6.71006C19.9136 6.3248 20.188 5.92787 20.188 5.84614C20.188 5.76442 19.9136 5.36749 18.6411 4.98223Z" fill="url(#paint1_linear)"/>
<path d="M18.9853 7.81442C17.6777 8.21135 15.9674 8.42733 14.1637 8.42733C12.4417 8.42733 10.8015 8.22886 9.53477 7.86111C9.09698 7.74437 8.6767 7.58093 8.27393 7.37662L8.31479 9.02273C8.96856 9.26789 9.58731 9.61813 10.136 10.0559C10.1477 10.0618 10.1652 10.0618 10.1827 10.0676C11.3035 10.3536 12.7161 10.5054 14.1579 10.5054C15.8215 10.5054 17.4618 10.3011 18.6467 9.93918C19.9134 9.55392 20.1878 9.15115 20.1878 9.07526C20.1878 8.95852 20.217 8.84761 20.2812 8.74838V7.28906C19.8667 7.51672 19.4289 7.69767 18.9853 7.81442Z" fill="url(#paint2_linear)"/>
<path d="M13.9068 18.3505C13.8951 18.2805 13.8951 18.2162 13.9068 18.1462C13.3639 18.1404 12.8386 18.1112 12.3366 18.0703C12.0681 18.7649 11.6886 19.4129 11.2158 19.9908C12.1206 20.1425 13.0254 20.2184 13.9302 20.2301L13.9068 18.3505Z" fill="url(#paint3_linear)"/>
<path d="M11.5196 14.3867C11.2569 13.1258 10.5857 11.9817 9.60499 11.147C9.00376 10.6217 8.29745 10.2306 7.5386 9.99707C6.97823 9.82779 6.40034 9.74023 5.81661 9.74023C4.36897 9.74023 2.97387 10.2831 1.89981 11.2579C-0.475951 13.4177 -0.645231 17.101 1.51455 19.4768C3.67434 21.8525 7.35765 22.0277 9.73341 19.862C10.9476 18.7646 11.6422 17.2002 11.6364 15.56C11.6364 15.1689 11.5955 14.772 11.5196 14.3867ZM5.82245 19.4067C3.69769 19.4067 1.96986 17.6789 1.96986 15.5541C1.96986 13.4294 3.69185 11.7016 5.82245 11.7016C7.94721 11.7074 9.6692 13.4294 9.67504 15.5541C9.67504 17.6789 7.94721 19.4067 5.82245 19.4067Z" fill="url(#paint4_linear)"/>
<path d="M13.8953 16.9725L13.8719 15.0287C13.8602 14.9878 13.8486 14.947 13.8427 14.9061C13.475 14.9003 13.1189 14.8886 12.7745 14.8652C12.792 15.0987 12.8037 15.3264 12.8037 15.554C12.8037 16.0093 12.757 16.4705 12.6694 16.9199C13.0605 16.9491 13.475 16.9666 13.8953 16.9725Z" fill="url(#paint5_linear)"/>
<path d="M25.4122 13.8202C24.2273 13.4583 22.5928 13.2656 20.9234 13.2656H20.8767C19.3123 13.2656 17.8238 13.4407 16.6797 13.7618C15.5414 14.077 15.1036 14.4331 15.0044 14.614C15.0219 14.6666 15.0336 14.7191 15.0336 14.7716C15.1737 14.9701 15.6465 15.3145 16.7439 15.6122C17.888 15.9216 19.3765 16.0967 20.9234 16.0967C22.587 16.0967 24.1689 15.9041 25.3655 15.548C26.6614 15.1627 26.9474 14.76 26.9533 14.6724V14.6666C26.9357 14.5673 26.638 14.1938 25.4122 13.8202Z" fill="url(#paint6_linear)"/>
<path d="M25.7273 19.8906C24.4198 20.2875 22.727 20.5035 20.9233 20.5035C19.3297 20.5035 17.7828 20.3284 16.557 20.0073C16.055 19.8847 15.5705 19.7096 15.1035 19.482L15.121 20.8012L15.1269 21.1572C15.1269 21.1631 15.1269 21.1631 15.1269 21.1689C15.1269 21.2973 15.5004 21.6826 16.6154 22.027C17.7887 22.3831 19.3589 22.5815 21.0458 22.5815C22.727 22.5815 24.303 22.3772 25.4938 22.0095C26.7372 21.6242 26.994 21.2215 26.994 21.1397V19.3594C26.6438 19.587 26.1534 19.7621 25.7273 19.8906Z" fill="url(#paint7_linear)"/>
<path d="M25.6868 16.6699C24.3851 17.0551 22.6981 17.2653 20.9236 17.2653C18.7521 17.2653 16.4347 16.9384 15.0571 16.2204L15.0805 18.065C15.5825 18.6253 17.7423 19.3317 20.9177 19.3317C22.6105 19.3317 24.1983 19.1332 25.3949 18.7713C26.6499 18.386 26.9184 17.9891 26.9184 17.9074C26.9184 17.7906 26.9943 17.6855 27.0002 17.598V16.1387C26.5799 16.3663 26.1421 16.5414 25.6868 16.6699Z" fill="url(#paint8_linear)"/>
<path d="M18.9737 11.0663C17.6661 11.4633 15.9558 11.6792 14.1521 11.6792C13.2707 11.6792 12.3834 11.6209 11.5078 11.51C11.9748 12.1696 12.3309 12.9051 12.5468 13.6814C13.0488 13.7223 13.5859 13.7456 14.1521 13.7456C14.1696 13.7456 14.1813 13.7456 14.1988 13.7456C14.6074 13.2903 15.3254 12.9167 16.3527 12.6249C17.4443 12.3155 18.8161 12.1287 20.2754 12.0878V10.5293C19.8609 10.7569 19.429 10.9379 18.9737 11.0663Z" fill="url(#paint9_linear)"/>
</g>
<defs>
<linearGradient id="paint0_linear" x1="3.13721" y1="15.5621" x2="8.50749" y2="15.5621" gradientUnits="userSpaceOnUse">
<stop stop-color="#EE0979"/>
<stop offset="1" stop-color="#FF6A00"/>
</linearGradient>
<linearGradient id="paint1_linear" x1="8.19824" y1="5.84614" x2="20.188" y2="5.84614" gradientUnits="userSpaceOnUse">
<stop stop-color="#EE0979"/>
<stop offset="1" stop-color="#FF6A00"/>
</linearGradient>
<linearGradient id="paint2_linear" x1="8.27393" y1="8.89723" x2="20.2812" y2="8.89723" gradientUnits="userSpaceOnUse">
<stop stop-color="#EE0979"/>
<stop offset="1" stop-color="#FF6A00"/>
</linearGradient>
<linearGradient id="paint3_linear" x1="11.2158" y1="19.1502" x2="13.9302" y2="19.1502" gradientUnits="userSpaceOnUse">
<stop stop-color="#EE0979"/>
<stop offset="1" stop-color="#FF6A00"/>
</linearGradient>
<linearGradient id="paint4_linear" x1="0" y1="15.5596" x2="11.6364" y2="15.5596" gradientUnits="userSpaceOnUse">
<stop stop-color="#EE0979"/>
<stop offset="1" stop-color="#FF6A00"/>
</linearGradient>
<linearGradient id="paint5_linear" x1="12.6694" y1="15.9189" x2="13.8953" y2="15.9189" gradientUnits="userSpaceOnUse">
<stop stop-color="#EE0979"/>
<stop offset="1" stop-color="#FF6A00"/>
</linearGradient>
<linearGradient id="paint6_linear" x1="15.0044" y1="14.6812" x2="26.9533" y2="14.6812" gradientUnits="userSpaceOnUse">
<stop stop-color="#EE0979"/>
<stop offset="1" stop-color="#FF6A00"/>
</linearGradient>
<linearGradient id="paint7_linear" x1="15.1035" y1="20.9705" x2="26.994" y2="20.9705" gradientUnits="userSpaceOnUse">
<stop stop-color="#EE0979"/>
<stop offset="1" stop-color="#FF6A00"/>
</linearGradient>
<linearGradient id="paint8_linear" x1="15.0571" y1="17.7352" x2="27.0002" y2="17.7352" gradientUnits="userSpaceOnUse">
<stop stop-color="#EE0979"/>
<stop offset="1" stop-color="#FF6A00"/>
</linearGradient>
<linearGradient id="paint9_linear" x1="11.5078" y1="12.1375" x2="20.2754" y2="12.1375" gradientUnits="userSpaceOnUse">
<stop stop-color="#EE0979"/>
<stop offset="1" stop-color="#FF6A00"/>
</linearGradient>
<clipPath id="clip0">
<rect width="27" height="27" fill="white"/>
</clipPath>
</defs>
</svg>
