<svg width="25" height="19" viewBox="0 0 25 19" fill="none" xmlns="http://www.w3.org/2000/svg">
<path d="M24.1504 0.275391H0.849561C0.380371 0.275391 0 0.655761 0 1.12495V13.7895C0 14.2587 0.380371 14.6391 0.849561 14.6391H24.1504C24.6196 14.6391 25 14.2587 25 13.7895V1.12495C25 0.655761 24.6196 0.275391 24.1504 0.275391Z" fill="url(#paint0_linear)"/>
<path d="M17.355 17.2525H14.4708V16.1133H10.5299V17.2525H7.64565C7.23867 17.2525 6.90869 17.5824 6.90869 17.9895C6.90869 18.3964 7.23862 18.7264 7.64565 18.7264H17.355C17.762 18.7264 18.0919 18.3965 18.0919 17.9895C18.0919 17.5825 17.762 17.2525 17.355 17.2525Z" fill="url(#paint1_linear)"/>
<defs>
<linearGradient id="paint0_linear" x1="0" y1="7.45725" x2="25" y2="7.45725" gradientUnits="userSpaceOnUse">
<stop stop-color="#EE0979"/>
<stop offset="1" stop-color="#FF6A00"/>
</linearGradient>
<linearGradient id="paint1_linear" x1="6.90869" y1="17.4198" x2="18.0919" y2="17.4198" gradientUnits="userSpaceOnUse">
<stop stop-color="#EE0979"/>
<stop offset="1" stop-color="#FF6A00"/>
</linearGradient>
</defs>
</svg>
