<svg width="24" height="24" viewBox="0 0 24 24" fill="none" xmlns="http://www.w3.org/2000/svg">
<path d="M6.41225 3.50264V0H6.41155L2.90967 3.50189V3.50264H6.41225Z" fill="url(#paint0_linear)"/>
<path d="M8.9629 13.2015L9.77665 13.6713L10.2465 14.485H11.1861L11.9999 14.9549L12.8136 14.4851H13.7532L14.2231 13.6714L15.0368 13.2016V12.262L15.5066 11.4483L15.0368 10.6345V9.69486L14.2231 9.22508L13.7533 8.41133H12.8136L11.9999 7.94141L11.1861 8.41119H10.2465L9.77674 9.22493L8.96299 9.69471V10.6344L8.49316 11.4481L8.96299 12.2618V13.2015H8.9629ZM11.2968 10.745H12.703V12.1513H11.2968V10.745Z" fill="url(#paint1_linear)"/>
<path d="M14.5651 15.8893H13.1904L13.1318 15.9231L13.9867 19.1688L14.6069 18.7631L15.3466 18.8106L14.5734 15.875L14.5651 15.8893Z" fill="url(#paint2_linear)"/>
<path d="M10.8095 15.8893H9.43477L9.42652 15.875L8.65332 18.8106L9.39296 18.7631L10.0132 19.1688L10.8681 15.9231L10.8095 15.8893Z" fill="url(#paint3_linear)"/>
<path d="M7.81851 0V4.90889H2.90967V24H21.0905V0H7.81851ZM14.9847 20.1974L13.124 21.4146L12 17.1473L10.8761 21.4146L9.01537 20.1974L6.7965 20.34L8.34356 14.4664L7.55686 14.0123V12.6375L6.86948 11.447L7.55686 10.2564V8.88173L8.74739 8.19441L9.43476 7.00383H10.8095L12 6.31641L13.1906 7.00373H14.5653L15.2527 8.19431L16.4432 8.88164V10.2563L17.1306 11.4469L16.4432 12.6375V14.0122L15.6565 14.4663L17.2036 20.34L14.9847 20.1974Z" fill="url(#paint4_linear)"/>
<defs>
<linearGradient id="paint0_linear" x1="2.90967" y1="1.75132" x2="6.41225" y2="1.75132" gradientUnits="userSpaceOnUse">
<stop stop-color="#EE0979"/>
<stop offset="1" stop-color="#FF6A00"/>
</linearGradient>
<linearGradient id="paint1_linear" x1="8.49316" y1="11.4482" x2="15.5066" y2="11.4482" gradientUnits="userSpaceOnUse">
<stop stop-color="#EE0979"/>
<stop offset="1" stop-color="#FF6A00"/>
</linearGradient>
<linearGradient id="paint2_linear" x1="13.1318" y1="17.5219" x2="15.3466" y2="17.5219" gradientUnits="userSpaceOnUse">
<stop stop-color="#EE0979"/>
<stop offset="1" stop-color="#FF6A00"/>
</linearGradient>
<linearGradient id="paint3_linear" x1="8.65332" y1="17.5219" x2="10.8681" y2="17.5219" gradientUnits="userSpaceOnUse">
<stop stop-color="#EE0979"/>
<stop offset="1" stop-color="#FF6A00"/>
</linearGradient>
<linearGradient id="paint4_linear" x1="2.90967" y1="12" x2="21.0905" y2="12" gradientUnits="userSpaceOnUse">
<stop stop-color="#EE0979"/>
<stop offset="1" stop-color="#FF6A00"/>
</linearGradient>
</defs>
</svg>
