<svg width="24" height="24" viewBox="0 0 24 24" fill="none" xmlns="http://www.w3.org/2000/svg">
<path d="M20.5486 1.2584C20.4674 1.226 18.5246 0.4596 16.2226 0.4596C14.849 0.4596 13.6346 0.7344 12.613 1.2764C11.7078 1.7568 10.4798 2 8.96299 2C6.83979 2 4.7462 1.5152 4.0002 1.3228V0.4C4.0002 0.1788 3.8214 0 3.6002 0C3.379 0 3.2002 0.1788 3.2002 0.4V1.6C3.2002 1.6056 3.203 1.6104 3.2034 1.616C3.2034 1.6208 3.2002 1.6248 3.2002 1.6296V13.2V13.6296V23.6C3.2002 23.8212 3.379 24 3.6002 24C3.8214 24 4.0002 23.8212 4.0002 23.6V14.1492C4.9094 14.3748 6.89739 14.8 8.96299 14.8C10.6118 14.8 11.9658 14.5248 12.9878 13.9832C13.893 13.5028 14.981 13.2592 16.2226 13.2592C18.3654 13.2592 20.2334 13.9936 20.2518 14.0008C20.3754 14.0504 20.5146 14.0352 20.6246 13.96C20.7342 13.8864 20.8002 13.7624 20.8002 13.6296V1.6296C20.8002 1.466 20.7006 1.3192 20.5486 1.2584Z" fill="url(#paint0_linear)"/>
<defs>
<linearGradient id="paint0_linear" x1="3.2002" y1="12" x2="20.8002" y2="12" gradientUnits="userSpaceOnUse">
<stop stop-color="#EE0979"/>
<stop offset="1" stop-color="#FF6A00"/>
</linearGradient>
</defs>
</svg>
