<svg width="24" height="24" viewBox="0 0 24 24" fill="none" xmlns="http://www.w3.org/2000/svg">
<g clip-path="url(#clip0)">
<path d="M13.1108 0.0136719C14.4773 1.9927 15.5421 4.16382 16.2704 6.45581C17.937 6.19437 19.5421 5.63207 21.0076 4.79643L21.4377 4.52975C19.3975 1.9478 16.3878 0.315436 13.1108 0.0136719Z" fill="url(#paint0_linear)"/>
<path d="M15.0107 8.38672C14.0112 8.50118 13.006 8.55864 12 8.55875C10.9939 8.55859 9.98874 8.50118 8.98924 8.38672C8.7769 9.2912 8.64166 10.2121 8.58496 11.1394H15.415C15.3583 10.2121 15.2231 9.2912 15.0107 8.38672Z" fill="url(#paint1_linear)"/>
<path d="M12.0001 17.1602C11.1525 17.1609 10.3055 17.2048 9.4624 17.2918C10.0826 19.1437 10.9353 20.9095 12.0001 22.5468C13.0648 20.9095 13.9174 19.1437 14.5377 17.2918C13.6946 17.2048 12.8476 17.1609 12.0001 17.1602Z" fill="url(#paint2_linear)"/>
<path d="M17.1286 12.8613C17.0762 13.8763 16.9389 14.8852 16.7183 15.8772C18.5498 16.1815 20.3112 16.8145 21.9174 17.7456L22.4034 18.0484C23.326 16.4645 23.8722 14.6899 24 12.8613H17.1286Z" fill="url(#paint3_linear)"/>
<path d="M22.4034 5.95508L21.9174 6.2579C20.3115 7.19056 18.5501 7.82499 16.7183 8.13058C16.9386 9.12101 17.0759 10.1281 17.1286 11.1413H24C23.8721 9.31309 23.3259 7.53875 22.4034 5.95508Z" fill="url(#paint4_linear)"/>
<path d="M8.58496 12.8613C8.64217 13.7887 8.77801 14.7096 8.99096 15.614C10.9916 15.3855 13.0118 15.3855 15.0125 15.614C15.2243 14.7095 15.3589 13.7886 15.415 12.8613H8.58496Z" fill="url(#paint5_linear)"/>
<path d="M2.08256 6.2579L1.59652 5.95508C0.674143 7.53875 0.127923 9.31309 0 11.1413H6.87142C6.92414 10.1281 7.06139 9.12096 7.28175 8.13058C5.44995 7.82499 3.68851 7.19056 2.08256 6.2579Z" fill="url(#paint6_linear)"/>
<path d="M7.73028 17.5449C6.06384 17.8065 4.45875 18.3684 2.99308 19.2034L2.56299 19.471C4.60301 22.053 7.61299 23.6852 10.8899 23.9863C9.52322 22.0076 8.4584 19.8368 7.73028 17.5449Z" fill="url(#paint7_linear)"/>
<path d="M12.0001 1.45312C10.9355 3.09022 10.0828 4.8557 9.4624 6.70731C10.3054 6.79471 11.1525 6.83861 12.0001 6.83891C12.8476 6.83861 13.6946 6.79466 14.5377 6.70731C13.9173 4.8557 13.0646 3.09022 12.0001 1.45312Z" fill="url(#paint8_linear)"/>
<path d="M21.0073 19.2054C19.5416 18.3704 17.9365 17.8085 16.2701 17.5469C15.5412 19.8389 14.4755 22.0097 13.1079 23.9882C16.3848 23.6871 19.3948 22.0549 21.4348 19.4729L21.0073 19.2054Z" fill="url(#paint9_linear)"/>
<path d="M2.56494 4.5278L2.99246 4.79448C4.45794 5.63012 6.06308 6.19236 7.72966 6.45386C8.45874 4.16167 9.52447 1.9906 10.8918 0.0117188C7.61494 0.313432 4.60516 1.94579 2.56494 4.5278Z" fill="url(#paint10_linear)"/>
<path d="M6.87142 12.8613H0C0.127772 14.6899 0.673992 16.4645 1.59657 18.0484L2.08261 17.7456C3.68886 16.8145 5.45025 16.1815 7.28175 15.8772C7.06104 14.8851 6.92379 13.8763 6.87142 12.8613Z" fill="url(#paint11_linear)"/>
</g>
<defs>
<linearGradient id="paint0_linear" x1="13.1108" y1="3.23474" x2="21.4377" y2="3.23474" gradientUnits="userSpaceOnUse">
<stop stop-color="#EE0979"/>
<stop offset="1" stop-color="#FF6A00"/>
</linearGradient>
<linearGradient id="paint1_linear" x1="8.58496" y1="9.76305" x2="15.415" y2="9.76305" gradientUnits="userSpaceOnUse">
<stop stop-color="#EE0979"/>
<stop offset="1" stop-color="#FF6A00"/>
</linearGradient>
<linearGradient id="paint2_linear" x1="9.4624" y1="19.8535" x2="14.5377" y2="19.8535" gradientUnits="userSpaceOnUse">
<stop stop-color="#EE0979"/>
<stop offset="1" stop-color="#FF6A00"/>
</linearGradient>
<linearGradient id="paint3_linear" x1="16.7183" y1="15.4549" x2="24" y2="15.4549" gradientUnits="userSpaceOnUse">
<stop stop-color="#EE0979"/>
<stop offset="1" stop-color="#FF6A00"/>
</linearGradient>
<linearGradient id="paint4_linear" x1="16.7183" y1="8.5482" x2="24" y2="8.5482" gradientUnits="userSpaceOnUse">
<stop stop-color="#EE0979"/>
<stop offset="1" stop-color="#FF6A00"/>
</linearGradient>
<linearGradient id="paint5_linear" x1="8.58496" y1="14.2377" x2="15.415" y2="14.2377" gradientUnits="userSpaceOnUse">
<stop stop-color="#EE0979"/>
<stop offset="1" stop-color="#FF6A00"/>
</linearGradient>
<linearGradient id="paint6_linear" x1="0" y1="8.5482" x2="7.28175" y2="8.5482" gradientUnits="userSpaceOnUse">
<stop stop-color="#EE0979"/>
<stop offset="1" stop-color="#FF6A00"/>
</linearGradient>
<linearGradient id="paint7_linear" x1="2.56299" y1="20.7656" x2="10.8899" y2="20.7656" gradientUnits="userSpaceOnUse">
<stop stop-color="#EE0979"/>
<stop offset="1" stop-color="#FF6A00"/>
</linearGradient>
<linearGradient id="paint8_linear" x1="9.4624" y1="4.14602" x2="14.5377" y2="4.14602" gradientUnits="userSpaceOnUse">
<stop stop-color="#EE0979"/>
<stop offset="1" stop-color="#FF6A00"/>
</linearGradient>
<linearGradient id="paint9_linear" x1="13.1079" y1="20.7675" x2="21.4348" y2="20.7675" gradientUnits="userSpaceOnUse">
<stop stop-color="#EE0979"/>
<stop offset="1" stop-color="#FF6A00"/>
</linearGradient>
<linearGradient id="paint10_linear" x1="2.56494" y1="3.23279" x2="10.8918" y2="3.23279" gradientUnits="userSpaceOnUse">
<stop stop-color="#EE0979"/>
<stop offset="1" stop-color="#FF6A00"/>
</linearGradient>
<linearGradient id="paint11_linear" x1="0" y1="15.4549" x2="7.28175" y2="15.4549" gradientUnits="userSpaceOnUse">
<stop stop-color="#EE0979"/>
<stop offset="1" stop-color="#FF6A00"/>
</linearGradient>
<clipPath id="clip0">
<rect width="24" height="24" fill="white"/>
</clipPath>
</defs>
</svg>
