<svg width="24" height="24" viewBox="0 0 24 24" fill="none" xmlns="http://www.w3.org/2000/svg">
<path d="M18.4861 14.7891C18.5179 16.1596 19.729 17.275 21.0995 17.2432C21.7051 17.2113 22.2788 16.9882 22.6931 16.6057C22.8843 16.4145 23.1712 16.3189 23.458 16.3189H23.968V23.1394C23.968 23.5856 23.6174 23.9362 23.1712 23.9362H16.3188V23.4263C16.3188 23.1394 16.4463 22.8526 16.6375 22.6295C17.02 22.1833 17.275 21.6096 17.275 20.9722C17.275 20.8766 17.275 20.8128 17.275 20.7172C17.275 20.6854 17.275 20.6854 17.275 20.6535C17.275 20.5897 17.275 20.526 17.2431 20.4623C17.2431 20.4304 17.2431 20.3985 17.2113 20.3666C17.2113 20.3029 17.1794 20.271 17.1794 20.2073C17.1794 20.1754 17.1476 20.1435 17.1476 20.1117C17.1157 20.0479 17.1157 20.0161 17.0838 19.9523C17.0838 19.9205 17.052 19.8886 17.052 19.8567C17.0201 19.8249 17.0201 19.7611 16.9882 19.7292C16.9882 19.6974 16.9564 19.6654 16.9564 19.6336C16.9245 19.6017 16.8926 19.538 16.8608 19.5061C16.8289 19.4742 16.8289 19.4423 16.797 19.4423C16.7651 19.4105 16.7332 19.3467 16.7014 19.3148C16.6695 19.283 16.6695 19.283 16.6376 19.2511C16.6058 19.2192 16.5739 19.1873 16.542 19.1555C16.5102 19.1236 16.4783 19.1236 16.4783 19.0917C16.4464 19.0599 16.4145 19.028 16.3508 18.9961C16.3189 18.9643 16.287 18.9643 16.287 18.9324C16.2552 18.9005 16.1914 18.8686 16.1595 18.8367C16.1277 18.8049 16.0957 18.8049 16.0639 18.773C16.032 18.7411 15.9683 18.7092 15.9364 18.7092C15.9045 18.7092 15.8726 18.6774 15.8408 18.6774C15.8089 18.6455 15.7452 18.6455 15.7133 18.6136C15.6814 18.6136 15.6495 18.5818 15.6177 18.5818C15.5858 18.5818 15.5221 18.5499 15.4902 18.518C15.4583 18.518 15.4264 18.518 15.3946 18.4862C15.3627 18.4862 15.2989 18.4543 15.267 18.4543C15.2351 18.4543 15.2033 18.4543 15.1714 18.4543C15.1396 18.4543 15.0758 18.4543 15.0121 18.4543C14.9802 18.4543 14.9483 18.4543 14.8846 18.4543C14.8527 18.4543 14.789 18.4543 14.7571 18.4543H14.7252H14.5977C14.5658 18.4543 14.5021 18.4543 14.4702 18.4543C14.4064 18.4543 14.3746 18.4862 14.3108 18.4862C14.279 18.4862 14.2471 18.4862 14.2152 18.4862C14.1515 18.4862 14.0877 18.518 14.024 18.5499H13.9922C13.9284 18.5818 13.8328 18.6137 13.769 18.6455C13.2591 18.8686 12.8129 19.283 12.5579 19.7929C12.5579 19.7929 12.5579 19.7929 12.5579 19.8248C12.5261 19.8885 12.4942 19.9523 12.4623 20.016C12.4623 20.016 12.4623 20.0478 12.4305 20.0797C12.3986 20.1435 12.3986 20.1753 12.3667 20.2391C12.3667 20.2709 12.3348 20.3028 12.3348 20.3347C12.3348 20.3665 12.303 20.4303 12.303 20.4622C12.303 20.4941 12.2711 20.526 12.2711 20.5578C12.2711 20.5897 12.2711 20.6534 12.2711 20.6853C12.2711 20.7172 12.2711 20.7809 12.2711 20.8128C12.2711 20.8447 12.2711 20.9084 12.2711 20.9403C12.2711 20.9722 12.2711 21.0359 12.2711 21.0678V21.0997C12.2711 21.1315 12.2711 21.1635 12.2711 21.1953V21.3228C12.2711 21.3547 12.2711 21.3866 12.2711 21.4184C12.2711 21.4503 12.2711 21.514 12.303 21.5459C12.303 21.5778 12.303 21.6097 12.3348 21.6415C12.3348 21.6734 12.3667 21.7371 12.3667 21.769C12.3667 21.8009 12.3986 21.8328 12.3986 21.8646C12.3986 21.8965 12.4304 21.9284 12.4304 21.9603C12.4304 21.9921 12.4623 22.024 12.4623 22.0559C12.4623 22.0877 12.4941 22.1196 12.4941 22.1515C12.4941 22.1833 12.526 22.2152 12.5579 22.2471C12.5897 22.2789 12.5897 22.3108 12.6216 22.3427C12.6535 22.3745 12.6535 22.4064 12.6854 22.4383C12.7172 22.4701 12.7172 22.502 12.7491 22.5339C12.781 22.5657 12.781 22.5976 12.8129 22.6295C12.8447 22.6613 12.8447 22.6613 12.8766 22.6933C13.0678 22.9164 13.1954 23.2032 13.1954 23.4901V24H6.3111C5.86492 24 5.5143 23.6494 5.5143 23.2032V16.287H5.00436C4.71749 16.287 4.46253 16.3826 4.23946 16.5739C3.82514 16.9564 3.25145 17.2113 2.64586 17.2113C1.27537 17.2751 0.0642375 16.1596 0.0323858 14.7572C0.000534128 13.323 1.14791 12.1756 2.55025 12.1756C3.18769 12.1756 3.76138 12.3987 4.20756 12.813C4.43068 13.0043 4.68564 13.1318 5.00436 13.1318H5.5143V6.27936C5.5143 5.83318 5.86487 5.48256 6.3111 5.48256H13.1635V4.97263C13.1635 4.68576 13.0679 4.43079 12.8766 4.20773C12.4942 3.7934 12.2392 3.21971 12.2392 2.61412C12.1754 1.24363 13.291 0.0324993 14.6615 0.000647546C16.0957 -0.0312042 17.2431 1.11617 17.2431 2.51851C17.2431 3.15596 17.02 3.72964 16.6056 4.17582C16.4144 4.39894 16.2869 4.65391 16.2869 4.97263V5.48256H23.1712C23.6173 5.48256 23.968 5.83313 23.968 6.27936V13.1318H23.458C23.1712 13.1318 22.8843 13.0043 22.6612 12.813C22.2151 12.4306 21.6414 12.1756 21.0039 12.1756C19.6016 12.2075 18.4542 13.3548 18.4861 14.7891Z" fill="url(#paint0_linear)"/>
<defs>
<linearGradient id="paint0_linear" x1="0.0317383" y1="12" x2="23.968" y2="12" gradientUnits="userSpaceOnUse">
<stop stop-color="#EE0979"/>
<stop offset="1" stop-color="#FF6A00"/>
</linearGradient>
</defs>
</svg>
