<svg width="24" height="24" viewBox="0 0 24 24" fill="none" xmlns="http://www.w3.org/2000/svg">
<path d="M23.0512 15.6561C22.8492 15.901 22.6104 16.1214 22.3472 16.299V19.0419H22.69C23.4125 19.0419 23.9941 18.4602 24.0002 17.7439V14.4316L23.0512 15.6561Z" fill="url(#paint0_linear)"/>
<path d="M17.2653 9.79572H20.798C20.902 9.79572 21.0122 9.78347 21.1224 9.75898V6.25694C21.1224 5.53449 20.5347 4.95898 19.8184 4.95898H1.3102C0.587755 4.95898 0.00612245 5.54062 0 6.25694V20.2957C0.00612245 21.0182 0.587755 21.6059 1.3102 21.612H19.8184C20.5408 21.6059 21.1224 21.0182 21.1224 20.2957L21.1163 16.7386C21.0122 16.7508 20.902 16.7631 20.7918 16.7692H17.2653C15.3429 16.7631 13.7816 15.2018 13.7816 13.2794C13.7816 11.3569 15.3429 9.79572 17.2653 9.79572Z" fill="url(#paint1_linear)"/>
<path d="M22.6897 2.38867H4.18152C3.45907 2.39479 2.87744 2.98255 2.87744 3.705V3.73561H19.8183C21.2142 3.73561 22.3468 4.86214 22.3468 6.25806V8.81724L23.9999 6.68663V3.705C23.9938 2.98255 23.4121 2.39479 22.6897 2.38867Z" fill="url(#paint2_linear)"/>
<path d="M23.9936 8.6875L23.0446 9.91199C22.7691 10.2671 22.414 10.5548 22.0099 10.7446C21.6303 10.9283 21.214 11.0202 20.7916 11.0202H17.265C16.0161 11.0263 15.0059 12.0365 15.0059 13.2855C15.0059 14.5344 16.0161 15.5446 17.265 15.5508H20.7977C21.2997 15.5446 21.7773 15.312 22.0834 14.914L23.9997 12.4283L23.9936 8.6875ZM18.6365 13.8977H17.1671C16.8303 13.8977 16.5548 13.6222 16.5548 13.2855C16.5548 12.9487 16.8303 12.6732 17.1671 12.6732H18.6365C18.9732 12.6732 19.2487 12.9487 19.2487 13.2855C19.2487 13.6222 18.9732 13.8977 18.6365 13.8977Z" fill="url(#paint3_linear)"/>
<defs>
<linearGradient id="paint0_linear" x1="22.3472" y1="16.7367" x2="24.0002" y2="16.7367" gradientUnits="userSpaceOnUse">
<stop stop-color="#EE0979"/>
<stop offset="1" stop-color="#FF6A00"/>
</linearGradient>
<linearGradient id="paint1_linear" x1="0" y1="13.2855" x2="21.1224" y2="13.2855" gradientUnits="userSpaceOnUse">
<stop stop-color="#EE0979"/>
<stop offset="1" stop-color="#FF6A00"/>
</linearGradient>
<linearGradient id="paint2_linear" x1="2.87744" y1="5.60296" x2="23.9999" y2="5.60296" gradientUnits="userSpaceOnUse">
<stop stop-color="#EE0979"/>
<stop offset="1" stop-color="#FF6A00"/>
</linearGradient>
<linearGradient id="paint3_linear" x1="15.0059" y1="12.1191" x2="23.9997" y2="12.1191" gradientUnits="userSpaceOnUse">
<stop stop-color="#EE0979"/>
<stop offset="1" stop-color="#FF6A00"/>
</linearGradient>
</defs>
</svg>
